<?xml version="1.0" encoding="UTF-8" standalone="no"?>
<!DOCTYPE svg PUBLIC "-//W3C//DTD SVG 1.1//EN" "http://www.w3.org/Graphics/SVG/1.1/DTD/svg11.dtd">
<svg width="100%" height="100%" viewBox="0 0 554 553" version="1.1" xmlns="http://www.w3.org/2000/svg" xmlns:xlink="http://www.w3.org/1999/xlink" xml:space="preserve" xmlns:serif="http://www.serif.com/" style="fill-rule:evenodd;clip-rule:evenodd;stroke-linecap:round;stroke-linejoin:round;stroke-miterlimit:1.5;">
    <g transform="matrix(1,0,0,1,-830.175,-1616.52)">
        <g id="ArtBoard2" transform="matrix(0.931992,0,0,0.739058,52.4129,1020.07)">
            <rect x="834.516" y="807.042" width="594.268" height="747.876" style="fill:none;"/>
            <clipPath id="_clip1">
                <rect x="834.516" y="807.042" width="594.268" height="747.876"/>
            </clipPath>
            <g clip-path="url(#_clip1)">
                <g transform="matrix(1.08485,0.000180974,-0.00010489,0.999897,-70.0865,-0.124829)">
                    <rect x="834" y="807" width="594.268" height="747.876"/>
                </g>
                <g transform="matrix(1,0,0,1,-13.9486,-9.3)">
                    <g transform="matrix(0.800962,0,0,1.01006,863.229,1017.45)">
                        <g transform="matrix(96.4514,0,0,96.4514,667.14,406.117)">
                        </g>
                        <text x="51.008px" y="406.117px" style="font-family:'SukhumvitSet-Bold', 'Sukhumvit Set';font-weight:700;font-size:96.451px;fill:white;">Gr<tspan x="149.967px 199.061px " y="406.117px 406.117px ">ap</tspan>h Masters</text>
                    </g>
                    <g>
                        <g transform="matrix(1.07297,0,0,1.35307,183.965,343.214)">
                            <path d="M921.803,482.854L978.028,449.339L1092.03,514.299L1092.03,647.673L978.028,710.812L921.803,677.571" style="fill:rgb(13,13,13);stroke:url(#_Radial2);stroke-width:3px;"/>
                            <path d="M865.214,514.299L978.028,449.339" style="fill:none;stroke:url(#_Radial3);stroke-width:3px;"/>
                            <path d="M865.214,514.299L865.214,644.999" style="fill:none;stroke:url(#_Radial4);stroke-width:3px;"/>
                            <path d="M978.028,710.812L865.214,644.999" style="fill:none;stroke:url(#_Radial5);stroke-width:3px;"/>
                            <path d="M865.214,644.999L929.68,630.636L929.68,572.302L893.939,544.457L865.214,644.999Z" style="fill:rgb(13,13,13);stroke:url(#_Radial6);stroke-width:3px;"/>
                            <path d="M929.68,630.636L893.939,544.457" style="fill:none;stroke:url(#_Radial7);stroke-width:3px;"/>
                            <path d="M929.68,572.302L972.842,580.198" style="fill:none;stroke:url(#_Radial8);stroke-width:3px;"/>
                            <path d="M929.68,572.302L951.498,514.461" style="fill:none;stroke:url(#_Radial9);stroke-width:3px;"/>
                            <path d="M951.498,514.461L865.214,514.461" style="fill:none;stroke:url(#_Radial10);stroke-width:3px;"/>
                            <path d="M865.214,514.461L893.939,543.382" style="fill:none;stroke:url(#_Radial11);stroke-width:3px;"/>
                            <path d="M893.939,543.382L951.498,514.461" style="fill:none;stroke:url(#_Radial12);stroke-width:3px;"/>
                            <path d="M929.68,630.636L978.45,711.02" style="fill:none;stroke:url(#_Radial13);stroke-width:3px;"/>
                            <path d="M931.943,634.366L1012.11,648.611" style="fill:none;stroke:url(#_Radial14);stroke-width:3px;"/>
                            <path d="M1034.13,608.818L1092.03,647.757L1012.11,648.611L1034.13,608.818Z" style="fill:rgb(13,13,13);stroke:url(#_Radial15);stroke-width:3px;"/>
                            <path d="M972.261,580.198L1012.11,648.611L972.261,580.198Z" style="fill:rgb(13,13,13);stroke:url(#_Radial16);stroke-width:3px;"/>
                            <path d="M1034.13,608.818L972.261,580.198L1023.71,552.352L1092.03,580.198L1034.13,608.818Z" style="fill:rgb(13,13,13);stroke:url(#_Radial17);stroke-width:3px;"/>
                            <path d="M1008.83,507.438L978.028,449.339" style="fill:none;stroke:url(#_Radial18);stroke-width:3px;"/>
                            <path d="M1092.03,514.06L1008.83,507.438L1024.18,552.352L1092.03,514.06Z" style="fill:rgb(13,13,13);stroke:url(#_Radial19);stroke-width:3px;"/>
                            <path d="M1012.11,648.611L978.028,710.812" style="fill:none;stroke:url(#_Radial20);stroke-width:3px;"/>
                            <path d="M978.028,449.339L951.498,514.461L1008.83,507.438" style="fill:rgb(13,13,13);stroke:url(#_Radial21);stroke-width:3px;"/>
                            <path d="M951.498,514.461L1024.72,552.352" style="fill:none;stroke:url(#_Radial22);stroke-width:3px;"/>
                            <path d="M972.261,580.021L951.498,514.461" style="fill:none;stroke:url(#_Radial23);stroke-width:3px;"/>
                        </g>
                        <g transform="matrix(1.07297,0,0,1.35307,183.965,343.214)">
                            <g transform="matrix(1,0,0,1,-3.50898,330.49)">
                                <circle cx="1027.21" cy="221.862" r="14.872" style="fill:url(#_Radial24);stroke:black;stroke-width:6px;"/>
                            </g>
                            <g transform="matrix(0.644371,0,0,0.644371,430.118,371.338)">
                                <circle cx="1027.21" cy="221.862" r="14.872" style="fill:url(#_Radial25);stroke:black;stroke-width:9.31px;"/>
                            </g>
                            <g transform="matrix(0.644371,0,0,0.644371,346.927,364.477)">
                                <circle cx="1027.21" cy="221.862" r="14.872" style="fill:url(#_Radial26);stroke:black;stroke-width:9.31px;"/>
                            </g>
                            <g transform="matrix(0.810503,0,0,0.810503,118.938,334.641)">
                                <circle cx="1027.21" cy="221.862" r="14.872" style="fill:url(#_Radial27);stroke:black;stroke-width:7.4px;"/>
                            </g>
                            <g transform="matrix(0.840038,0,0,0.840038,116.13,263.884)">
                                <circle cx="1027.21" cy="221.862" r="14.872" style="fill:url(#_Radial28);stroke:black;stroke-width:7.14px;"/>
                            </g>
                            <g transform="matrix(0.644371,0,0,0.644371,310.355,437.236)">
                                <circle cx="1027.21" cy="221.862" r="14.872" style="fill:url(#_Radial29);stroke:black;stroke-width:9.31px;"/>
                            </g>
                            <g transform="matrix(1.03216,0,0,1.03216,-82.2168,481.816)">
                                <circle cx="1027.21" cy="221.862" r="14.872" style="fill:url(#_Radial30);stroke:black;stroke-width:5.81px;"/>
                            </g>
                            <g transform="matrix(1.4671,0,0,1.4671,-414.999,254.705)">
                                <circle cx="1027.21" cy="221.862" r="14.872" style="fill:url(#_Radial31);stroke:black;stroke-width:4.09px;"/>
                            </g>
                            <g transform="matrix(1.4671,0,0,1.4671,-577.344,305.143)">
                                <circle cx="1027.21" cy="221.862" r="14.872" style="fill:url(#_Radial32);stroke:black;stroke-width:4.09px;"/>
                            </g>
                            <g transform="matrix(0.530899,0,0,0.530899,348.592,426.67)">
                                <circle cx="1027.21" cy="221.862" r="14.872" style="fill:url(#_Radial33);stroke:black;stroke-width:11.3px;"/>
                            </g>
                            <g transform="matrix(0.530899,0,0,0.530899,384.333,454.516)">
                                <circle cx="1027.21" cy="221.862" r="14.872" style="fill:url(#_Radial34);stroke:black;stroke-width:11.3px;"/>
                            </g>
                            <g transform="matrix(0.530899,0,0,0.530899,319.867,396.242)">
                                <circle cx="1027.21" cy="221.862" r="14.872" style="fill:url(#_Radial35);stroke:black;stroke-width:11.3px;"/>
                            </g>
                            <g transform="matrix(0.965765,0,0,0.965765,-126.834,430.732)">
                                <circle cx="1027.21" cy="221.862" r="14.872" style="fill:url(#_Radial36);stroke:black;stroke-width:6.21px;"/>
                            </g>
                            <g transform="matrix(0.914777,0,0,0.914777,152.353,444.719)">
                                <circle cx="1027.21" cy="221.862" r="14.872" style="fill:url(#_Radial37);stroke:black;stroke-width:6.56px;"/>
                            </g>
                            <g transform="matrix(0.457389,0,0,0.457389,564.29,507.341)">
                                <circle cx="1027.21" cy="221.862" r="14.872" style="fill:url(#_Radial38);stroke:black;stroke-width:13.12px;"/>
                            </g>
                            <g transform="matrix(0.779574,0,0,0.779574,211.322,475.653)">
                                <circle cx="1027.21" cy="221.862" r="14.872" style="fill:url(#_Radial39);stroke:black;stroke-width:7.7px;"/>
                            </g>
                        </g>
                        <g id="Bildschirmfoto-2024-04-23-um-16.28.07.svg" serif:id="Bildschirmfoto 2024-04-23 um 16.28.07.svg" transform="matrix(0.299583,0,0,0.377791,1044.38,1141.19)">
                            <g transform="matrix(1,0,0,1,-504,-512)">
                                <path d="M637.452,75.735L309.225,71.722L124.938,249.137L132.653,817.783L652.288,827.814L676.858,793.342L668.136,93.972L637.452,75.735Z" style="fill:url(#_Linear40);stroke:black;stroke-width:1px;"/>
                                <path d="M703.221,142.078L924.583,215.281L937.007,236.802L735.649,932.089L353.065,843.029L597.161,843.029L676.858,819.602L688.457,768.65L688.457,142.078L703.221,142.078Z" style="fill:url(#_Linear41);stroke:black;stroke-width:1px;"/>
                                <path d="M309.225,89.889L283.572,238.794L147.821,238.794L309.225,89.889Z" style="fill:url(#_Linear42);stroke:black;stroke-width:1px;"/>
                                <path d="M100.947,611C100.924,491.335 100.927,372.169 100.822,253.004C100.815,244.998 103.484,238.737 109.213,233.029C168.708,173.739 228.07,114.315 287.378,54.837C292.667,49.533 298.652,46.982 306.089,46.986C408.754,47.048 511.42,46.947 614.085,47.102C655.215,47.164 687.319,74.907 693.772,115.709C694.453,120.017 696.233,121.482 700.061,122.514C764.542,139.901 829.005,157.355 893.441,174.911C935.047,186.246 959.635,229.449 948.37,271.036C931.526,333.222 914.709,395.416 897.898,457.611C887.603,495.695 877.377,533.798 867.054,571.874C851.369,629.723 835.592,687.548 819.92,745.401C806.166,796.177 792.501,846.977 778.802,897.767C766.945,941.73 725.526,966.61 681.462,955.1C626.199,940.664 571.192,925.252 516.061,910.314C465.27,896.551 414.457,882.868 363.661,869.125C350.642,865.603 337.621,862.087 324.659,858.366C318.992,856.74 313.322,856.029 307.428,856.043C265.262,856.138 223.095,856.249 180.93,856.043C159.39,855.937 140.48,848.692 124.921,833.453C109.102,817.96 101.183,798.925 101.073,776.994C100.794,721.831 100.96,666.665 100.947,611M141.988,750.5C141.989,758.497 142.522,766.536 141.889,774.482C140.112,796.757 158.348,815.932 182.703,815.687C228.842,815.223 274.985,815.191 321.127,815.146C418.94,815.05 516.754,814.799 614.565,815.235C635.737,815.33 653.882,797.469 653.865,775.498C653.694,559.876 653.772,344.254 653.752,128.631C653.752,125.645 653.691,122.611 653.186,119.681C650.314,103.024 635.456,87.743 612.031,87.868C518.22,88.37 424.405,88.113 330.591,88.126C324.323,88.127 324.208,88.171 324.203,94.543C324.182,127.036 324.148,159.53 324.203,192.023C324.211,196.889 323.678,201.708 322.7,206.399C314.673,244.881 283.011,270.337 243.703,270.241C212.377,270.164 181.05,270.208 149.723,270.209C142.134,270.21 142.131,270.23 142.129,277.597C142.081,434.898 142.035,592.199 141.988,750.5M639.59,852.291C631.731,854.667 623.709,856.118 615.49,856.114C570.66,856.088 525.831,855.999 481.002,855.976C479.29,855.976 477.427,855.405 475.728,856.657C476.968,858.16 478.721,858.189 480.249,858.602C510.947,866.904 541.663,875.145 572.362,883.443C612.231,894.221 652.03,905.265 691.976,915.748C713.38,921.365 733.313,909.278 739.124,888.01C743.556,871.79 747.887,855.543 752.284,839.314C770.482,772.15 788.682,704.986 806.891,637.825C823.75,575.643 840.627,513.465 857.487,451.283C874.61,388.13 891.394,324.881 909.041,261.875C914.196,243.47 903.974,219.557 881.79,213.95C869.847,210.931 857.998,207.535 846.109,204.302C802.561,192.461 759.023,180.581 715.456,168.811C708.939,167.051 702.525,164.755 694.382,163.67C694.382,172.606 694.382,181.029 694.382,189.451C694.371,383.935 694.365,578.42 694.323,772.905C694.322,778.061 694.52,783.32 693.631,788.355C688.092,819.728 670.322,841.037 639.59,852.291M282.976,158.5L282.976,119.421C277.557,121.667 176.225,223.322 174.026,228.076C175.171,229.436 176.769,229.031 178.196,229.019C200.517,228.835 222.82,230.131 245.162,229.225C267.196,228.33 283.028,212.583 283.015,190.499C283.009,180.166 282.989,169.833 282.976,158.5Z" style="fill:rgb(0,36,73);fill-rule:nonzero;"/>
                                <path d="M531,379.97C426.548,380.006 322.595,380.031 218.643,380.094C209.224,380.1 201.486,377.582 196.488,368.639C189.674,356.448 198.581,340.124 213.35,338.855C214.343,338.769 215.348,338.809 216.347,338.809C335.792,338.824 455.238,338.844 574.683,338.852C583.767,338.853 590.902,342.22 595.059,350.623C600.934,362.499 593.944,376.65 580.918,379.218C578.324,379.729 575.63,379.912 572.981,379.926C559.154,379.997 545.327,379.965 531,379.97Z" style="fill:white;fill-rule:nonzero;"/>
                                <path d="M460.01,470.419C380.028,471.434 300.54,470.659 221.055,470.892C217.899,470.902 214.705,470.8 211.594,470.326C201.52,468.789 193.473,459.272 193.977,449.742C194.538,439.136 202.999,430.587 213.609,429.937C214.937,429.855 216.274,429.897 217.607,429.897C307.93,429.902 398.254,429.908 488.577,429.917C501.328,429.918 508.959,435.144 511.568,445.635C514.632,457.954 505.754,469.978 493.002,470.32C482.178,470.609 471.34,470.404 460.01,470.419Z" style="fill:white;fill-rule:nonzero;"/>
                                <path d="M235,520.768C291.32,520.766 347.139,520.735 402.959,520.78C417.704,520.791 427.409,533.444 423.289,547.044C420.628,555.828 413.067,561.281 403.218,561.288C367.227,561.316 331.236,561.281 295.245,561.28C268.585,561.279 241.925,561.339 215.265,561.283C204.796,561.261 197.71,555.848 194.951,546.106C191.45,533.746 200.777,521.268 214.006,520.839C220.831,520.618 227.668,520.78 235,520.768Z" style="fill:white;fill-rule:nonzero;"/>
                                <path d="M275,611.11C287.991,611.367 300.508,610.443 312.972,611.621C324.375,612.7 332.389,621.406 332.209,632.076C332.025,642.977 323.532,651.941 311.942,652.044C279.114,652.335 246.279,652.316 213.45,652.025C202.848,651.931 193.952,641.922 194.049,631.532C194.147,620.913 202.919,611.909 214.02,611.7C234.177,611.32 254.34,611.287 275,611.11Z" style="fill:white;fill-rule:nonzero;"/>
                            </g>
                        </g>
                    </g>
                </g>
            </g>
        </g>
    </g>
    <defs>
        <radialGradient id="_Radial2" cx="0" cy="0" r="1" gradientUnits="userSpaceOnUse" gradientTransform="matrix(226.811,0,0,261.68,865.214,580.179)"><stop offset="0" style="stop-color:rgb(0,139,255);stop-opacity:1"/><stop offset="1" style="stop-color:white;stop-opacity:1"/></radialGradient>
        <radialGradient id="_Radial3" cx="0" cy="0" r="1" gradientUnits="userSpaceOnUse" gradientTransform="matrix(226.811,0,0,261.68,865.214,580.179)"><stop offset="0" style="stop-color:rgb(0,139,255);stop-opacity:1"/><stop offset="1" style="stop-color:white;stop-opacity:1"/></radialGradient>
        <radialGradient id="_Radial4" cx="0" cy="0" r="1" gradientUnits="userSpaceOnUse" gradientTransform="matrix(226.811,0,0,261.68,865.214,580.179)"><stop offset="0" style="stop-color:rgb(0,139,255);stop-opacity:1"/><stop offset="1" style="stop-color:white;stop-opacity:1"/></radialGradient>
        <radialGradient id="_Radial5" cx="0" cy="0" r="1" gradientUnits="userSpaceOnUse" gradientTransform="matrix(226.811,0,0,261.68,865.214,580.179)"><stop offset="0" style="stop-color:rgb(0,139,255);stop-opacity:1"/><stop offset="1" style="stop-color:white;stop-opacity:1"/></radialGradient>
        <radialGradient id="_Radial6" cx="0" cy="0" r="1" gradientUnits="userSpaceOnUse" gradientTransform="matrix(226.811,0,0,261.68,865.214,580.179)"><stop offset="0" style="stop-color:rgb(0,139,255);stop-opacity:1"/><stop offset="1" style="stop-color:white;stop-opacity:1"/></radialGradient>
        <radialGradient id="_Radial7" cx="0" cy="0" r="1" gradientUnits="userSpaceOnUse" gradientTransform="matrix(226.811,0,0,261.68,865.214,580.179)"><stop offset="0" style="stop-color:rgb(0,139,255);stop-opacity:1"/><stop offset="1" style="stop-color:white;stop-opacity:1"/></radialGradient>
        <radialGradient id="_Radial8" cx="0" cy="0" r="1" gradientUnits="userSpaceOnUse" gradientTransform="matrix(226.811,0,0,261.68,865.214,580.179)"><stop offset="0" style="stop-color:rgb(0,139,255);stop-opacity:1"/><stop offset="1" style="stop-color:white;stop-opacity:1"/></radialGradient>
        <radialGradient id="_Radial9" cx="0" cy="0" r="1" gradientUnits="userSpaceOnUse" gradientTransform="matrix(226.811,0,0,261.68,865.214,580.179)"><stop offset="0" style="stop-color:rgb(0,139,255);stop-opacity:1"/><stop offset="1" style="stop-color:white;stop-opacity:1"/></radialGradient>
        <radialGradient id="_Radial10" cx="0" cy="0" r="1" gradientUnits="userSpaceOnUse" gradientTransform="matrix(226.811,0,0,261.68,865.214,580.179)"><stop offset="0" style="stop-color:rgb(0,139,255);stop-opacity:1"/><stop offset="1" style="stop-color:white;stop-opacity:1"/></radialGradient>
        <radialGradient id="_Radial11" cx="0" cy="0" r="1" gradientUnits="userSpaceOnUse" gradientTransform="matrix(226.811,0,0,261.68,865.214,580.179)"><stop offset="0" style="stop-color:rgb(0,139,255);stop-opacity:1"/><stop offset="1" style="stop-color:white;stop-opacity:1"/></radialGradient>
        <radialGradient id="_Radial12" cx="0" cy="0" r="1" gradientUnits="userSpaceOnUse" gradientTransform="matrix(226.811,0,0,261.68,865.214,580.179)"><stop offset="0" style="stop-color:rgb(0,139,255);stop-opacity:1"/><stop offset="1" style="stop-color:white;stop-opacity:1"/></radialGradient>
        <radialGradient id="_Radial13" cx="0" cy="0" r="1" gradientUnits="userSpaceOnUse" gradientTransform="matrix(226.811,0,0,261.68,865.214,580.179)"><stop offset="0" style="stop-color:rgb(0,139,255);stop-opacity:1"/><stop offset="1" style="stop-color:white;stop-opacity:1"/></radialGradient>
        <radialGradient id="_Radial14" cx="0" cy="0" r="1" gradientUnits="userSpaceOnUse" gradientTransform="matrix(226.811,0,0,261.68,865.214,580.179)"><stop offset="0" style="stop-color:rgb(0,139,255);stop-opacity:1"/><stop offset="1" style="stop-color:white;stop-opacity:1"/></radialGradient>
        <radialGradient id="_Radial15" cx="0" cy="0" r="1" gradientUnits="userSpaceOnUse" gradientTransform="matrix(226.811,0,0,261.68,865.214,580.179)"><stop offset="0" style="stop-color:rgb(0,139,255);stop-opacity:1"/><stop offset="1" style="stop-color:white;stop-opacity:1"/></radialGradient>
        <radialGradient id="_Radial16" cx="0" cy="0" r="1" gradientUnits="userSpaceOnUse" gradientTransform="matrix(226.811,0,0,261.68,865.214,580.179)"><stop offset="0" style="stop-color:rgb(0,139,255);stop-opacity:1"/><stop offset="1" style="stop-color:white;stop-opacity:1"/></radialGradient>
        <radialGradient id="_Radial17" cx="0" cy="0" r="1" gradientUnits="userSpaceOnUse" gradientTransform="matrix(226.811,0,0,261.68,865.214,580.179)"><stop offset="0" style="stop-color:rgb(0,139,255);stop-opacity:1"/><stop offset="1" style="stop-color:white;stop-opacity:1"/></radialGradient>
        <radialGradient id="_Radial18" cx="0" cy="0" r="1" gradientUnits="userSpaceOnUse" gradientTransform="matrix(226.811,0,0,261.68,865.214,580.179)"><stop offset="0" style="stop-color:rgb(0,139,255);stop-opacity:1"/><stop offset="1" style="stop-color:white;stop-opacity:1"/></radialGradient>
        <radialGradient id="_Radial19" cx="0" cy="0" r="1" gradientUnits="userSpaceOnUse" gradientTransform="matrix(226.811,0,0,261.68,865.214,580.179)"><stop offset="0" style="stop-color:rgb(0,139,255);stop-opacity:1"/><stop offset="1" style="stop-color:white;stop-opacity:1"/></radialGradient>
        <radialGradient id="_Radial20" cx="0" cy="0" r="1" gradientUnits="userSpaceOnUse" gradientTransform="matrix(226.811,0,0,261.68,865.214,580.179)"><stop offset="0" style="stop-color:rgb(0,139,255);stop-opacity:1"/><stop offset="1" style="stop-color:white;stop-opacity:1"/></radialGradient>
        <radialGradient id="_Radial21" cx="0" cy="0" r="1" gradientUnits="userSpaceOnUse" gradientTransform="matrix(226.811,0,0,261.68,865.214,580.179)"><stop offset="0" style="stop-color:rgb(0,139,255);stop-opacity:1"/><stop offset="1" style="stop-color:white;stop-opacity:1"/></radialGradient>
        <radialGradient id="_Radial22" cx="0" cy="0" r="1" gradientUnits="userSpaceOnUse" gradientTransform="matrix(226.811,0,0,261.68,865.214,580.179)"><stop offset="0" style="stop-color:rgb(0,139,255);stop-opacity:1"/><stop offset="1" style="stop-color:white;stop-opacity:1"/></radialGradient>
        <radialGradient id="_Radial23" cx="0" cy="0" r="1" gradientUnits="userSpaceOnUse" gradientTransform="matrix(226.811,0,0,261.68,865.214,580.179)"><stop offset="0" style="stop-color:rgb(0,139,255);stop-opacity:1"/><stop offset="1" style="stop-color:white;stop-opacity:1"/></radialGradient>
        <radialGradient id="_Radial24" cx="0" cy="0" r="1" gradientUnits="userSpaceOnUse" gradientTransform="matrix(29.7434,0,0,29.7434,1012.34,221.862)"><stop offset="0" style="stop-color:rgb(0,121,255);stop-opacity:1"/><stop offset="1" style="stop-color:rgb(0,227,255);stop-opacity:1"/></radialGradient>
        <radialGradient id="_Radial25" cx="0" cy="0" r="1" gradientUnits="userSpaceOnUse" gradientTransform="matrix(29.7434,0,0,29.7434,1012.34,221.862)"><stop offset="0" style="stop-color:rgb(0,121,255);stop-opacity:1"/><stop offset="1" style="stop-color:rgb(0,227,255);stop-opacity:1"/></radialGradient>
        <radialGradient id="_Radial26" cx="0" cy="0" r="1" gradientUnits="userSpaceOnUse" gradientTransform="matrix(29.7434,0,0,29.7434,1012.34,221.862)"><stop offset="0" style="stop-color:rgb(0,121,255);stop-opacity:1"/><stop offset="1" style="stop-color:rgb(0,227,255);stop-opacity:1"/></radialGradient>
        <radialGradient id="_Radial27" cx="0" cy="0" r="1" gradientUnits="userSpaceOnUse" gradientTransform="matrix(29.7434,0,0,29.7434,1012.34,221.862)"><stop offset="0" style="stop-color:rgb(0,121,255);stop-opacity:1"/><stop offset="1" style="stop-color:rgb(0,227,255);stop-opacity:1"/></radialGradient>
        <radialGradient id="_Radial28" cx="0" cy="0" r="1" gradientUnits="userSpaceOnUse" gradientTransform="matrix(29.7434,0,0,29.7434,1012.34,221.862)"><stop offset="0" style="stop-color:rgb(0,121,255);stop-opacity:1"/><stop offset="1" style="stop-color:rgb(0,227,255);stop-opacity:1"/></radialGradient>
        <radialGradient id="_Radial29" cx="0" cy="0" r="1" gradientUnits="userSpaceOnUse" gradientTransform="matrix(29.7434,0,0,29.7434,1012.34,221.862)"><stop offset="0" style="stop-color:rgb(0,121,255);stop-opacity:1"/><stop offset="1" style="stop-color:rgb(0,227,255);stop-opacity:1"/></radialGradient>
        <radialGradient id="_Radial30" cx="0" cy="0" r="1" gradientUnits="userSpaceOnUse" gradientTransform="matrix(29.7434,0,0,29.7434,1012.34,221.862)"><stop offset="0" style="stop-color:rgb(0,121,255);stop-opacity:1"/><stop offset="1" style="stop-color:rgb(0,227,255);stop-opacity:1"/></radialGradient>
        <radialGradient id="_Radial31" cx="0" cy="0" r="1" gradientUnits="userSpaceOnUse" gradientTransform="matrix(29.7434,0,0,29.7434,1012.34,221.862)"><stop offset="0" style="stop-color:rgb(0,121,255);stop-opacity:1"/><stop offset="1" style="stop-color:rgb(0,227,255);stop-opacity:1"/></radialGradient>
        <radialGradient id="_Radial32" cx="0" cy="0" r="1" gradientUnits="userSpaceOnUse" gradientTransform="matrix(29.7434,0,0,29.7434,1012.34,221.862)"><stop offset="0" style="stop-color:rgb(0,121,255);stop-opacity:1"/><stop offset="1" style="stop-color:rgb(0,227,255);stop-opacity:1"/></radialGradient>
        <radialGradient id="_Radial33" cx="0" cy="0" r="1" gradientUnits="userSpaceOnUse" gradientTransform="matrix(29.7434,0,0,29.7434,1012.34,221.862)"><stop offset="0" style="stop-color:rgb(0,121,255);stop-opacity:1"/><stop offset="1" style="stop-color:rgb(0,227,255);stop-opacity:1"/></radialGradient>
        <radialGradient id="_Radial34" cx="0" cy="0" r="1" gradientUnits="userSpaceOnUse" gradientTransform="matrix(29.7434,0,0,29.7434,1012.34,221.862)"><stop offset="0" style="stop-color:rgb(0,121,255);stop-opacity:1"/><stop offset="1" style="stop-color:rgb(0,227,255);stop-opacity:1"/></radialGradient>
        <radialGradient id="_Radial35" cx="0" cy="0" r="1" gradientUnits="userSpaceOnUse" gradientTransform="matrix(29.7434,0,0,29.7434,1012.34,221.862)"><stop offset="0" style="stop-color:rgb(0,121,255);stop-opacity:1"/><stop offset="1" style="stop-color:rgb(0,227,255);stop-opacity:1"/></radialGradient>
        <radialGradient id="_Radial36" cx="0" cy="0" r="1" gradientUnits="userSpaceOnUse" gradientTransform="matrix(29.7434,0,0,29.7434,1012.34,221.862)"><stop offset="0" style="stop-color:rgb(0,121,255);stop-opacity:1"/><stop offset="1" style="stop-color:rgb(0,227,255);stop-opacity:1"/></radialGradient>
        <radialGradient id="_Radial37" cx="0" cy="0" r="1" gradientUnits="userSpaceOnUse" gradientTransform="matrix(29.7434,0,0,29.7434,1012.34,221.862)"><stop offset="0" style="stop-color:rgb(0,121,255);stop-opacity:1"/><stop offset="1" style="stop-color:rgb(0,227,255);stop-opacity:1"/></radialGradient>
        <radialGradient id="_Radial38" cx="0" cy="0" r="1" gradientUnits="userSpaceOnUse" gradientTransform="matrix(29.7434,0,0,29.7434,1012.34,221.862)"><stop offset="0" style="stop-color:rgb(0,121,255);stop-opacity:1"/><stop offset="1" style="stop-color:rgb(0,227,255);stop-opacity:1"/></radialGradient>
        <radialGradient id="_Radial39" cx="0" cy="0" r="1" gradientUnits="userSpaceOnUse" gradientTransform="matrix(29.7434,0,0,29.7434,1012.34,221.862)"><stop offset="0" style="stop-color:rgb(0,121,255);stop-opacity:1"/><stop offset="1" style="stop-color:rgb(0,227,255);stop-opacity:1"/></radialGradient>
        <linearGradient id="_Linear40" x1="0" y1="0" x2="1" y2="0" gradientUnits="userSpaceOnUse" gradientTransform="matrix(551.92,0,0,756.093,124.938,449.768)"><stop offset="0" style="stop-color:rgb(0,235,184);stop-opacity:1"/><stop offset="1" style="stop-color:rgb(0,156,197);stop-opacity:1"/></linearGradient>
        <linearGradient id="_Linear41" x1="0" y1="0" x2="1" y2="0" gradientUnits="userSpaceOnUse" gradientTransform="matrix(583.942,0,0,790.012,353.065,537.084)"><stop offset="0" style="stop-color:rgb(13,0,255);stop-opacity:1"/><stop offset="1" style="stop-color:rgb(0,89,180);stop-opacity:1"/></linearGradient>
        <linearGradient id="_Linear42" x1="0" y1="0" x2="1" y2="0" gradientUnits="userSpaceOnUse" gradientTransform="matrix(161.404,0,0,148.905,147.821,164.341)"><stop offset="0" style="stop-color:rgb(51,0,255);stop-opacity:1"/><stop offset="1" style="stop-color:rgb(0,82,206);stop-opacity:1"/></linearGradient>
    </defs>
</svg>
